<svg xmlns="http://www.w3.org/2000/svg" viewBox="0 0 24 24" width="48" height="48" fill="none" stroke="currentColor" stroke-width="1.5" stroke-linecap="round" stroke-linejoin="round">
  <!-- Federkrone -->
  <path d="M 12,5 C 12,2 10.5,1.5 11.5,1.5 C 12.5,1.5 12.5,3.5 12.5,5" />

  <!-- Kopfumriss -->
  <circle cx="12" cy="9.5" r="4.5" />
  
  <!-- Augen -->
  <circle cx="10.2" cy="9" r="0.8" fill="currentColor" stroke="none" />
  <circle cx="13.8" cy="9" r="0.8" fill="currentColor" stroke="none" />
  
  <!-- Schnabel -->
  <polygon points="12,12.5 10.5,10.2 13.5,10.2" fill="currentColor" stroke="none" />
  <polygon points="12,12.5 10.5,10.2 13.5,10.2" fill="none" />
  
  <!-- Körper & Flügel -->
  <path d="M 8,13 C 6.5,14 6,17.5 7.5,19 C 9.5,20.5 14.5,20.5 16.5,19 C 18,17.5 17.5,14 16,13" />
  <path d="M 7.2,13.5 C 5.5,15 5.5,18 7.2,19" />
  <path d="M 16.8,13.5 C 18.5,15 18.5,18 16.8,19" />

  <!-- Füße -->
  <path d="M 10,20 L 9.5,22" />
  <path d="M 14,20 L 14.5,22" />
</svg>
