<svg xmlns="http://www.w3.org/2000/svg" viewBox="0 0 24 24" width="48" height="48" fill="none" stroke="currentColor" stroke-width="1.5" stroke-linecap="round" stroke-linejoin="round">
  <!-- Ohren -->
  <path d="M 6,10 L 3,4 L 9,7" fill="none" />
  <path d="M 18,10 L 21,4 L 15,7" fill="none" />
  
  <!-- Kopfumriss -->
  <path d="M 6,10 C 6,6 18,6 18,10 C 18,15 16,18 12,18 C 8,18 6,15 6,10 Z" />
  
  <!-- Augen -->
  <path d="M 9,11 C 9.5,10.5 10,11 10,11.5" />
  <path d="M 15,11 C 14.5,10.5 14,11 14,11.5" />
  
  <!-- Nase (kleines Dreieck) -->
  <polygon points="12,13.5 11,12.5 13,12.5" fill="currentColor" />
  
  <!-- Mundlinie -->
  <path d="M 11,14.5 C 11.5,15.2 12,15.2 12,15.2 C 12,15.2 12.5,15.2 13,14.5" />
  
  <!-- Schnurrhaare -->
  <path d="M 7,13.5 L 4,13" />
  <path d="M 7,14.5 L 3.5,14.8" />
  <path d="M 17,13.5 L 20,13" />
  <path d="M 17,14.5 L 20.5,14.8" />
</svg>
